<svg width="207.99999999999997" height="128" xmlns="http://www.w3.org/2000/svg" fill="none">
 <g>
  <title>Layer 1</title>
  <rect id="svg_6" height="114.33289" width="192.33258" y="7.33306" x="7.3329" fill="#fff"/>
  <rect fill="#c6daf3" stroke="#000" x="19.5" y="18" width="171" height="92" id="svg_4" stroke-width="0"/>
  <g fill="#000" id="svg_1">
   <path clip-rule="evenodd" d="m15,10c-2.7614,0 -5,2.2386 -5,5l0,98c0,2.761 2.2386,5 5,5l178,0c2.761,0 5,-2.239 5,-5l0,-98c0,-2.7614 -2.239,-5 -5,-5l-178,0zm-15,5c0,-8.28427 6.71573,-15 15,-15l178,0c8.284,0 15,6.71573 15,15l0,98c0,8.284 -6.716,15 -15,15l-178,0c-8.28427,0 -15,-6.716 -15,-15l0,-98z" fill-rule="evenodd" id="svg_2"/>
   <path d="m30,98l0,-68l20,0l20,25l20,-25l20,0l0,68l-20,0l0,-39l-20,25l-20,-25l0,39l-20,0zm125,0l-30,-33l20,0l0,-35l20,0l0,35l20,0l-30,33z" id="svg_3"/>
  </g>
  <line fill="none" x1="190.5" y1="18" x2="190.5" y2="110" id="svg_5" stroke-linejoin="undefined" stroke-linecap="undefined" stroke-width="6" stroke="#202020"/>
 </g>

</svg>